<svg width="113" height="97" viewBox="0 0 113 97" fill="none" xmlns="http://www.w3.org/2000/svg">
<path fill-rule="evenodd" clip-rule="evenodd" d="M2.55522 26.9423L91.4501 0.75277C92.1277 0.555315 92.8557 0.63315 93.475 0.969275C94.0944 1.3054 94.5547 1.87251 94.7555 2.54673L112.053 61.2588C112.25 61.9342 112.17 62.6603 111.832 63.2785C111.494 63.8967 110.924 64.3568 110.248 64.5583L21.3531 90.7478C21.0162 90.846 20.6634 90.877 20.3147 90.8392C19.9661 90.8014 19.6285 90.6955 19.3211 90.5275C19.0138 90.3595 18.7427 90.1327 18.5234 89.8601C18.3041 89.5875 18.1409 89.2744 18.0431 88.9386L0.745864 30.2265C0.553872 29.5526 0.636147 28.8299 0.97485 28.2151C1.31356 27.6003 1.88139 27.143 2.55522 26.9423ZM69.0113 27.7075L69.1184 27.676C69.2634 27.6305 69.4168 27.6182 69.5671 27.6399C69.7174 27.6616 69.8608 27.7168 69.9867 27.8013C75.6858 31.0032 80.8639 40.0847 82.2742 46.7627C82.6611 48.3641 82.7498 50.0233 82.5357 51.6577C82.4821 52.3538 82.2587 53.0266 81.8851 53.6176C81.5116 54.2086 80.999 54.6999 80.392 55.0488C78.8371 55.8383 76.5308 55.5731 73.3274 53.8154L72.008 53.1185C70.4285 52.3359 68.9234 51.4119 67.5115 50.3579L49.5643 55.6454C48.95 57.3008 48.1845 58.8967 47.2773 60.4128L46.591 61.6674C44.8591 64.904 43.0649 66.3773 41.3236 66.534C40.6243 66.578 39.9251 66.4509 39.2869 66.1637C38.6488 65.8765 38.091 65.438 37.6621 64.8863C36.5972 63.6283 35.7722 62.1863 35.228 60.6314C32.7835 54.2249 32.2158 43.7189 35.3135 37.9502C35.3762 37.8343 35.4614 37.732 35.564 37.6491C35.6666 37.5663 35.7846 37.5045 35.9113 37.4675L36.0184 37.4359C37.6434 32.9049 43.7577 31.0539 47.5778 34.0304L50.6378 33.1288C48.7258 27.4854 49.8925 25.5755 52.2015 24.7211C53.1031 24.4362 54.0339 24.2537 54.9762 24.1772C56.8463 23.9494 58.9144 23.6882 59.9077 21.8956C59.942 21.7455 60.0105 21.6053 60.1078 21.4857C60.2052 21.3662 60.3288 21.2705 60.4691 21.2062C60.6094 21.1419 60.7626 21.1107 60.9168 21.115C61.071 21.1192 61.2221 21.1588 61.3584 21.2308C61.4947 21.3027 61.6125 21.405 61.7026 21.5297C61.7927 21.6544 61.8528 21.7982 61.8782 21.9499C61.9036 22.1016 61.8935 22.2572 61.8489 22.4046C61.8042 22.5519 61.7262 22.6871 61.6208 22.7997C60.1401 25.5065 57.5249 25.8295 55.1755 26.1238C54.3736 26.182 53.5809 26.3322 52.8131 26.5712C51.5679 27.0292 51.0386 28.337 52.4933 32.5408L57.4353 31.0848C59.0404 26.5431 65.1714 24.7203 68.987 27.6815L69.0113 27.7075ZM45.7515 41.1233L46.504 43.6776L49.0592 42.9248C51.9586 42.0706 53.2435 46.4321 50.3441 47.2863L47.7889 48.0391L48.5392 50.5858C49.3906 53.4757 45.0071 54.7671 44.1557 51.8773L43.4054 49.3305L40.8502 50.0833C37.9585 50.9353 36.6735 46.5738 39.5653 45.7218L42.1205 44.9691L41.3679 42.4147C40.5188 39.5325 44.9023 38.241 45.7515 41.1233ZM65.1029 33.0106C65.4677 33.2094 65.765 33.5116 65.9574 33.8791C66.1497 34.2466 66.2285 34.6629 66.1836 35.0754C66.1388 35.488 65.9725 35.8782 65.7055 36.1969C65.4386 36.5156 65.0832 36.7484 64.684 36.866C64.2849 36.9836 63.8599 36.9807 63.4629 36.8576C63.0658 36.7345 62.7145 36.4968 62.4532 36.1745C62.1919 35.8522 62.0323 35.4597 61.9947 35.0466C61.9571 34.6335 62.043 34.2184 62.2418 33.8536C62.3741 33.6106 62.5532 33.396 62.7688 33.2221C62.9843 33.0482 63.2321 32.9183 63.4979 32.84C63.7637 32.7617 64.0423 32.7365 64.3178 32.7657C64.5932 32.795 64.86 32.8782 65.1029 33.0106ZM67.6885 41.7869C68.0533 41.9857 68.3506 42.288 68.543 42.6555C68.7353 43.023 68.8141 43.4392 68.7692 43.8518C68.7244 44.2643 68.5581 44.6545 68.2912 44.9732C68.0243 45.2919 67.6688 45.5247 67.2696 45.6423C66.8705 45.7599 66.4456 45.757 66.0485 45.6339C65.6514 45.5108 65.3001 45.2731 65.0388 44.9508C64.7775 44.6285 64.6179 44.236 64.5803 43.8229C64.5427 43.4098 64.6287 42.9947 64.8274 42.6299C65.0962 42.1408 65.5482 41.7775 66.0845 41.6195C66.6208 41.4615 67.1975 41.5217 67.6885 41.7869ZM71.1833 35.7853C71.549 35.9833 71.8475 36.2852 72.0407 36.6528C72.234 37.0203 72.3135 37.437 72.2692 37.85C72.225 38.2631 72.0587 38.6539 71.7917 38.9732C71.5247 39.2924 71.1689 39.5256 70.7693 39.6434C70.3698 39.7611 69.9442 39.758 69.5468 39.6345C69.1494 39.511 68.7978 39.2727 68.5367 38.9497C68.2755 38.6266 68.1164 38.2334 68.0796 37.8198C68.0427 37.4061 68.1298 36.9907 68.3297 36.626C68.5974 36.1377 69.0482 35.775 69.5832 35.6174C70.1182 35.4598 70.6936 35.5202 71.1833 35.7853ZM61.4905 38.6409C61.8553 38.8397 62.1526 39.1419 62.3449 39.5094C62.5373 39.8769 62.616 40.2932 62.5712 40.7057C62.5264 41.1182 62.36 41.5085 62.0931 41.8272C61.8262 42.1458 61.4707 42.3787 61.0716 42.4963C60.6724 42.6139 60.2475 42.6109 59.8505 42.4879C59.4534 42.3648 59.102 42.1271 58.8407 41.8048C58.5794 41.4824 58.4199 41.09 58.3822 40.6769C58.3446 40.2638 58.4306 39.8486 58.6293 39.4838C58.7617 39.2409 58.9408 39.0263 59.1563 38.8524C59.3719 38.6785 59.6197 38.5486 59.8855 38.4703C60.1513 38.392 60.4299 38.3667 60.7053 38.396C60.9808 38.4253 61.2476 38.5085 61.4905 38.6409ZM55.2416 84.5675L78.4216 77.7384C79.6599 81.7158 82.3682 84.8127 87.6724 86.3078L52.1145 96.7836C54.9332 93.144 56.6317 89.2294 55.2416 84.5675ZM6.64856 29.6891L89.4769 5.2869C90.0855 5.10757 90.7403 5.17659 91.2971 5.47878C91.8539 5.78096 92.2671 6.29155 92.4458 6.89823L105.976 52.8233C106.155 53.4299 106.084 54.083 105.78 54.6388C105.476 55.1946 104.963 55.6076 104.355 55.7869L21.557 80.1801C20.9521 80.3475 20.3058 80.2712 19.7575 79.9676C19.2093 79.6641 18.803 79.1577 18.6263 78.5575L5.08506 32.5943C4.91831 31.9913 4.99599 31.3467 5.30135 30.7995C5.6067 30.2522 6.11528 29.8461 6.71742 29.6688L6.64856 29.6891Z" fill="url(#paint0_linear_2_854)"/>
<defs>
<linearGradient id="paint0_linear_2_854" x1="47.0026" y1="13.8475" x2="69.8935" y2="91.5457" gradientUnits="userSpaceOnUse">
<stop stop-color="#CA47A0"/>
<stop offset="1" stop-color="#4488FF"/>
</linearGradient>
</defs>
</svg>
