<svg width="131" height="102" viewBox="0 0 131 102" fill="none" xmlns="http://www.w3.org/2000/svg">
<path d="M21.6099 24.5389C20.6009 24.9458 19.3748 25.5149 18.4227 26.0278C16.3891 27.1265 15.4036 27.9949 14.6989 29.3105C14.1874 30.2738 13.9171 32.734 14.0513 35.3082C14.0917 36.0365 14.1209 36.6555 14.1059 36.6689C14.0996 36.68 13.732 37.1454 13.2832 37.6893C11.0549 40.432 9.53249 42.8883 9.04945 44.5363C8.55071 46.2636 8.30212 48.4277 8.30225 51.1602C8.3039 53.1811 8.29033 53.0632 10.0846 63.1099C11.7023 72.2035 12.48 75.7996 14.1471 81.932C15.4467 86.6862 16.3436 89.5573 17.1272 91.4673C18.0929 93.8049 19.4647 95.4419 21.456 96.6475C24.0718 98.2251 26.5048 98.8608 29.3571 98.708C30.6817 98.636 33.0358 97.9925 33.9523 97.4518C35.2634 96.6816 36.4319 95.4919 37.6115 93.7283C39.2225 91.3227 40.1764 88.4604 41.2644 82.7072C41.5218 81.3267 41.8311 79.7262 41.9363 79.1547C42.0713 78.4533 42.2531 77.8889 42.4958 77.4108C42.6968 77.019 42.9835 76.3604 43.1513 75.9496L43.4466 75.1857L44.5302 75.6662C46.9819 76.7459 48.0944 76.9565 50.5296 76.8148C51.6686 76.7468 53.8087 76.2085 54.7924 75.7431C57.0496 74.6769 58.8877 73.3415 60.3195 71.7148C61.5422 70.3138 62.1314 68.9174 62.6598 66.1714L62.9377 64.7292L68.7142 63.1501L74.4907 61.5709L75.4637 62.6712C77.3154 64.7666 78.533 65.669 80.2985 66.2532C82.3302 66.9237 84.6205 67.1398 87.1062 66.9095C88.1899 66.8097 90.3062 66.1844 91.3214 65.6636C93.4901 64.5467 94.3407 63.7994 95.9022 61.6226L96.5906 60.6577L97.2335 61.1651C97.5782 61.4358 98.1467 61.8419 98.4945 62.0556C99.206 62.5068 99.4298 62.7451 101.901 65.5695C106.023 70.3008 108.221 72.2639 110.866 73.5716C112.788 74.5247 114.534 75.002 116.083 74.9997C117.156 74.9965 119.501 74.3554 120.687 73.7411C123.22 72.4216 124.992 70.6366 126.441 67.9476C127.542 65.8967 127.89 63.7895 127.533 61.2857C127.235 59.2427 126.547 56.3146 125.247 51.5604C123.561 45.4241 122.401 41.9325 119.17 33.2892C115.666 23.8876 115.56 23.6359 114.357 21.6625C112.885 19.2482 111.646 17.6872 110.249 16.4689C109.095 15.4557 106.396 14.0878 103.391 13.0002L102.228 12.5695L102.002 12.1168C101.876 11.8611 101.486 11.1534 101.14 10.5368C99.3899 7.4124 98.04 6.16249 95.973 5.77302C94.6235 5.51495 92.651 5.53947 90.2982 5.84579C89.0344 6.00408 86.4878 6.72835 85.5846 7.18112C84.7462 7.59748 83.7564 8.27981 83.2886 8.75395C82.5817 9.48062 81.8739 10.8532 81.2576 12.6968C80.8751 13.8588 80.7889 14.3971 80.7967 15.6208C80.8105 16.6277 81.0363 19.0927 81.1601 19.5455L81.2338 19.8154L58.5621 26.0132L35.8903 32.211L35.8165 31.9411C35.5666 31.0268 33.9569 27.9388 33.3343 27.1639C32.8643 26.5718 31.1563 25.139 30.2788 24.5928C28.8717 23.7142 27.7227 23.4387 25.9091 23.5321C24.9447 23.5898 22.6624 24.1202 21.6099 24.5389ZM95.5738 17.2896C97.4246 17.2984 99.0084 18.5499 99.5265 20.4109C99.7716 21.3077 99.7582 21.9758 99.4663 22.8885C98.8123 24.9015 96.5285 26.1434 94.4842 25.598C92.0686 24.9576 90.7219 22.4902 91.5059 20.1329C91.7553 19.3722 92.1236 18.8411 92.7754 18.2886C93.6009 17.5857 94.4268 17.2944 95.5738 17.2896ZM27.8478 40.6982L28.512 43.1275L28.1984 43.859C27.6722 45.0416 26.7633 46.6002 26.4097 46.912L26.0775 47.1994L25.6453 47.121C25.1428 47.0244 23.9263 46.365 22.7522 45.5537L21.9221 44.9758L21.2509 42.5203L20.582 40.0736L23.8829 39.1712L27.1837 38.2688L27.8478 40.6982ZM88.3477 28.6605C89.5651 28.7769 90.841 29.5511 91.4995 30.5596C91.9134 31.1857 92.2252 32.3264 92.1866 33.0388C92.1277 34.0188 91.8222 34.8135 91.2203 35.5489C90.6161 36.2755 90.0604 36.6333 89.127 36.9072C88.1739 37.1771 87.4787 37.1613 86.5936 36.8605C84.1098 36.0047 83.0059 33.0593 84.3184 30.7914C84.7181 30.102 85.2135 29.5922 85.8624 29.1996C86.4639 28.8386 87.6185 28.5885 88.3477 28.6605ZM107.491 23.2495C108.741 23.1791 110.071 23.7419 110.926 24.7156C111.394 25.2333 111.453 25.348 111.706 26.1681C112.115 27.46 112.053 28.2911 111.445 29.4492C110.352 31.5635 107.753 32.302 105.642 31.1012C104.612 30.5122 104.024 29.7278 103.685 28.5198C102.986 25.9971 104.855 23.4086 107.491 23.2495ZM21.6044 47.4677C23.3211 48.2149 24.7449 49.1546 24.871 49.616C24.9877 50.0427 24.3045 51.4367 23.1949 53.0127L22.6973 53.7195L20.2304 54.3939L17.7721 55.066L16.8842 51.8181C16.3939 50.0244 16.0129 48.5283 16.0405 48.4927C16.057 48.4508 17.1444 48.1254 18.4474 47.7692L20.8188 47.121L21.6044 47.4677ZM36.2819 46.4499L37.1745 49.7151L34.7581 50.4038L32.3393 51.0837L31.7616 50.8486C30.8377 50.4742 29.1382 49.5164 28.746 49.1744C28.5562 48.9923 28.3671 48.7446 28.3314 48.6139C28.2028 48.1438 29.0358 46.5123 30.2133 44.9458L30.5737 44.4542L32.9846 43.8139L35.3893 43.1846L36.2819 46.4499ZM73.0015 35.9065C74.8477 36.0007 76.3337 36.1091 76.3109 36.1622C76.277 36.2089 75.9479 36.4392 75.5753 36.6814C75.2003 36.915 73.9517 37.7429 72.7914 38.5187L70.6752 39.93L70.1063 37.849C69.7945 36.7083 69.5635 35.7608 69.5896 35.7537C69.6156 35.7465 71.1553 35.8122 73.0015 35.9065ZM54.1137 42.1835L54.6492 44.1426L51.4787 45.0094L48.3081 45.8761L47.7725 43.9169L47.2369 41.9578L50.4075 41.091L53.5781 40.2243L54.1137 42.1835ZM27.6669 51.1351C28.2256 51.3006 29.0287 51.7454 30.1648 52.5204L31.2898 53.289L31.9389 55.7318L32.5794 58.177L29.3219 59.0675L26.0645 59.958L25.3695 57.5183L24.6833 55.0763L25.0686 54.2317C25.6476 52.9692 26.0449 52.271 26.5016 51.6876C26.9409 51.109 27.1983 50.9918 27.6669 51.1351ZM100.902 34.6988C102.642 35.0186 103.806 36.0667 104.263 37.7385C104.592 38.9401 104.442 40.0665 103.811 41.0718C103.168 42.0993 102.383 42.6415 101.092 42.9383C100.32 43.1212 100.172 43.1243 99.4802 42.9858C95.7034 42.2496 94.7473 37.4202 97.9551 35.2893C98.3102 35.0518 98.5985 34.945 99.2894 34.7748C100.096 34.5824 100.253 34.5769 100.902 34.6988ZM48.9969 56.3186C51.015 56.188 53.1518 56.8672 54.7009 58.1282C55.3951 58.687 56.2368 59.6828 56.6959 60.4744C57.2682 61.4409 57.7871 63.3391 57.779 64.4363C57.7642 66.602 57.0571 68.4891 55.6955 70.0311C54.5532 71.3166 53.37 72.0425 51.6674 72.5079C50.032 72.9456 48.5785 72.9219 47.0201 72.4121C43.4237 71.2429 41.0963 67.8177 41.3145 64.0055C41.3864 62.7318 41.6712 61.793 42.3751 60.5431C43.2532 58.9742 44.2711 57.9848 45.8002 57.1924C46.5344 56.8046 48.124 56.37 48.9969 56.3186ZM84.8611 46.505C87.6367 46.3451 90.2449 47.485 91.9048 49.5954C95.0733 53.6047 93.8987 59.4845 89.4274 61.9795C88.4304 62.5328 86.8668 62.9603 85.727 62.9911C83.7245 63.0426 81.703 62.3412 80.2109 61.0834C79.2264 60.2483 78.599 59.4559 78.0312 58.301C77.686 57.6186 77.2741 56.0094 77.221 55.2004C77.0385 51.9375 78.7798 48.9161 81.7576 47.344C82.3947 47.0108 84.1059 46.543 84.8611 46.505Z" fill="url(#paint0_linear_2_656)"/>
<defs>
<linearGradient id="paint0_linear_2_656" x1="75.0774" y1="86.427" x2="55.6022" y2="15.186" gradientUnits="userSpaceOnUse">
<stop stop-color="#7550FC"/>
<stop offset="0.503125" stop-color="#BC34FC"/>
<stop offset="1" stop-color="#4488FF"/>
</linearGradient>
</defs>
</svg>
