<svg width="50" height="50" viewBox="0 0 50 50" fill="none" xmlns="http://www.w3.org/2000/svg">
<path d="M50 25C50 11.1929 38.8071 0 25 0C11.1929 0 0 11.1929 0 25C0 38.8071 11.1929 50 25 50C38.8071 50 50 38.8071 50 25Z" fill="url(#paint0_linear_2_605)"/>
<path d="M34.3415 12.1636C32.1781 12.1636 30.4688 13.9842 30.4688 16.2532C30.4688 18.5221 32.2048 20.3148 34.3415 20.3148C36.4783 20.3148 38.241 18.494 38.241 16.2252C38.241 13.9563 36.505 12.1636 34.3415 12.1636ZM34.3415 19.4184C32.6589 19.4184 31.2967 17.9899 31.2967 16.2252C31.2967 14.4605 32.6856 13.0599 34.3415 13.0599C36.0242 13.0599 37.3864 14.4884 37.3864 16.2532C37.3864 18.0179 36.0242 19.4184 34.3415 19.4184Z" fill="white"/>
<path d="M35.5702 16.8693C35.5434 16.7854 35.5434 16.7293 35.49 16.6453C35.4633 16.5893 35.4366 16.5052 35.3832 16.4492C35.3298 16.3932 35.3031 16.3372 35.2496 16.2811C35.1962 16.2251 35.1428 16.1691 35.0627 16.1411C35.0092 16.085 34.9292 16.057 34.8757 16.029C34.7956 16.001 34.7422 15.945 34.6621 15.917C34.5819 15.889 34.5018 15.861 34.4483 15.8329C34.4217 15.8329 34.3682 15.8049 34.3415 15.7769C34.3148 15.7489 34.2614 15.7489 34.2347 15.7209C34.208 15.6929 34.1546 15.6929 34.1279 15.6649C34.1011 15.6368 34.0744 15.6089 34.0477 15.5808C34.021 15.5529 33.9943 15.5248 33.9943 15.4688C33.9676 15.4408 33.9676 15.3847 33.9676 15.3568C33.9676 15.3008 33.9676 15.2727 33.9676 15.2167C33.9676 15.1887 33.9943 15.1326 33.9943 15.1047C34.021 15.0766 34.021 15.0206 34.0477 14.9926C34.0744 14.9646 34.1011 14.9366 34.1279 14.9086C34.1546 14.8806 34.208 14.8526 34.2614 14.8526C34.3148 14.8245 34.3415 14.8245 34.395 14.8245C34.4217 14.8245 34.4483 14.8245 34.4751 14.8245C34.5018 14.8245 34.5285 14.8245 34.5552 14.8245C34.6086 14.8245 34.6353 14.8245 34.6887 14.8526C34.7422 14.8526 34.7956 14.8806 34.8223 14.8806C34.849 14.8806 34.9024 14.9086 34.9292 14.9086C34.9825 14.9086 35.0092 14.9366 35.036 14.9366L35.1695 14.9926L35.1963 14.8245L35.2496 14.3764V14.2643L35.1428 14.2363C35.1161 14.2363 35.0627 14.2083 35.036 14.2083C35.0092 14.2083 34.9825 14.1803 34.9292 14.1803C34.9024 14.1803 34.849 14.1522 34.7956 14.1522C34.7422 14.1522 34.7154 14.1243 34.6621 14.1243H34.6353V13.7321V13.592H34.5018H34.1279H33.9943V13.7321V14.1522H33.9676C33.8875 14.1803 33.8073 14.2083 33.7272 14.2643C33.6471 14.2923 33.5937 14.3483 33.5402 14.4044C33.4869 14.4604 33.4334 14.5164 33.38 14.6004C33.3266 14.6565 33.2999 14.7405 33.2731 14.8245C33.2465 14.9086 33.2198 14.9926 33.193 15.0766C33.1663 15.1607 33.1663 15.2727 33.1663 15.3568C33.1663 15.4408 33.1663 15.4968 33.193 15.5808C33.2198 15.6649 33.2198 15.7209 33.2731 15.8049C33.2999 15.861 33.3533 15.945 33.38 16.001C33.4334 16.057 33.4601 16.1131 33.5135 16.1691C33.567 16.2251 33.6204 16.2811 33.7005 16.3091C33.754 16.3651 33.8341 16.3932 33.8875 16.4212C33.9676 16.4492 34.0477 16.5052 34.1011 16.5333C34.1813 16.5612 34.2614 16.5893 34.3148 16.6172C34.3415 16.6172 34.395 16.6453 34.4217 16.6733C34.4483 16.7013 34.5018 16.7013 34.5285 16.7293C34.5552 16.7573 34.5819 16.7854 34.6086 16.7854C34.6353 16.8133 34.6621 16.8414 34.6887 16.8693C34.7154 16.8974 34.7154 16.9254 34.7422 16.9814C34.7422 17.0094 34.7689 17.0654 34.7689 17.1214C34.7689 17.1775 34.7689 17.2055 34.7689 17.2615C34.7689 17.2895 34.7422 17.3456 34.7154 17.3736C34.6887 17.4016 34.6621 17.4296 34.6353 17.4576C34.6086 17.4856 34.5819 17.5136 34.5285 17.5416C34.5018 17.5696 34.4483 17.5696 34.4217 17.5976C34.395 17.5976 34.3415 17.6257 34.2881 17.6257C34.2614 17.6257 34.2347 17.6257 34.1812 17.6257C34.1546 17.6257 34.1011 17.6257 34.0744 17.6257C34.021 17.6257 33.9676 17.6257 33.9409 17.6257C33.8875 17.6257 33.8341 17.5976 33.8073 17.5976C33.754 17.5976 33.7005 17.5696 33.6471 17.5416C33.5937 17.5136 33.5402 17.5136 33.4869 17.4856C33.4601 17.4856 33.4334 17.4576 33.4067 17.4576C33.38 17.4576 33.3533 17.4296 33.3266 17.4296L33.1663 17.3456L33.1396 17.5416L33.0862 18.0458V18.1299L33.1663 18.1579C33.2731 18.1299 33.3266 18.1579 33.4067 18.1859C33.4601 18.2139 33.5402 18.2419 33.5937 18.2419C33.6471 18.2699 33.7272 18.2699 33.8073 18.2979C33.8875 18.326 33.9409 18.326 34.021 18.326H34.0744V18.7461V18.8862H34.208H34.5819H34.7154V18.7461V18.2979H34.7422C34.8223 18.2699 34.9024 18.2419 34.9825 18.1859C35.0627 18.1579 35.1161 18.1018 35.1963 18.0458C35.2496 17.9898 35.3031 17.9338 35.3565 17.8497C35.4099 17.7937 35.4366 17.7097 35.49 17.6257C35.5167 17.5416 35.5434 17.4576 35.5702 17.3736C35.5969 17.2895 35.5969 17.2055 35.5969 17.0935C35.5969 17.0094 35.5969 16.9534 35.5702 16.8693Z" fill="white"/>
<path d="M32.4719 20.847C32.3383 20.6509 32.0446 20.6229 31.8576 20.7629L27.5307 24.3764L21.9485 21.9394C21.815 21.8834 21.6547 21.9114 21.5479 21.9954L15.565 26.4772C15.3781 26.6173 15.3247 26.8974 15.4582 27.0935C15.5383 27.2336 15.6719 27.2896 15.8054 27.2896C15.8856 27.2896 15.9657 27.2615 16.0458 27.2055L21.8417 22.8638L27.4506 25.3008C27.5842 25.3568 27.7711 25.3288 27.8779 25.2448L32.3918 21.4913C32.5787 21.3512 32.6054 21.0431 32.4719 20.847Z" fill="white"/>
<path d="M38.7217 36.1972H36.7453V23.228C36.7453 22.9759 36.5584 22.7798 36.318 22.7798H32.3917C32.1513 22.7798 31.9644 22.9759 31.9644 23.228V36.1972H30.5221V27.7097C30.5221 27.4576 30.3351 27.2615 30.0947 27.2615H26.1418C25.9014 27.2615 25.7144 27.4576 25.7144 27.7097V36.1972H24.2721V27.0375C24.2721 26.7854 24.0852 26.5893 23.8448 26.5893H19.9186C19.6782 26.5893 19.4913 26.7854 19.4913 27.0375V36.1972H18.049V29.6705C18.049 29.4184 17.862 29.2224 17.6216 29.2224H13.6686C13.4283 29.2224 13.2413 29.4184 13.2413 29.6705V36.1972H11.2382C10.9978 36.1972 10.8108 36.3932 10.8108 36.6453C10.8108 36.8974 10.9978 37.0935 11.2382 37.0935H13.6419H17.5682H19.9186H23.8448H26.1418H30.068H32.365H36.2913H38.695C38.9355 37.0935 39.1224 36.8974 39.1224 36.6453C39.1491 36.3932 38.9621 36.1972 38.7217 36.1972ZM17.1675 36.1972H14.096V30.1187H17.1675V36.1972ZM23.4175 36.1972H20.3459V27.4857H23.4175V36.1972ZM29.6407 36.1972H26.5692V28.158H29.6407V36.1972ZM35.8906 36.1972H32.819V23.6761H35.8906V36.1972Z" fill="white"/>
<defs>
<linearGradient id="paint0_linear_2_605" x1="59.7973" y1="-15.5405" x2="-6.20251e-06" y2="56.0811" gradientUnits="userSpaceOnUse">
<stop stop-color="#00F9CF"/>
<stop offset="1" stop-color="#0B493F"/>
</linearGradient>
</defs>
</svg>
