<svg width="50" height="50" viewBox="0 0 50 50" fill="none" xmlns="http://www.w3.org/2000/svg">
<path d="M50 25C50 11.1929 38.8071 0 25 0C11.1929 0 0 11.1929 0 25C0 38.8071 11.1929 50 25 50C38.8071 50 50 38.8071 50 25Z" fill="url(#paint0_linear_2_616)"/>
<path d="M26.6812 16.707C25.4528 15.4389 23.8195 14.7405 22.0822 14.7405C20.345 14.7405 18.7116 15.4389 17.4832 16.707C14.9473 19.3246 14.9473 23.5839 17.4832 26.2017C18.7116 27.4697 20.3449 28.1681 22.0822 28.1681C23.8195 28.1681 25.4528 27.4697 26.6812 26.2017C27.9096 24.9336 28.5862 23.2476 28.5862 21.4543C28.5862 19.661 27.9096 17.9751 26.6812 16.707ZM18.0069 17.2476C19.0955 16.124 20.5428 15.5051 22.0821 15.5051C23.6215 15.5051 25.0688 16.124 26.1573 17.2476C27.0165 18.1344 27.5707 19.252 27.7662 20.4649L25.7473 22.5028C25.5561 22.3915 25.3356 22.3276 25.1009 22.3276C24.6439 22.3276 24.2405 22.5687 24.0036 22.934L21.0361 21.9729C21.0363 21.9641 21.0368 21.9552 21.0368 21.9463C21.0368 21.195 20.4447 20.5838 19.7169 20.5838C18.989 20.5838 18.3969 21.195 18.3969 21.9463C18.3969 22.1918 18.4605 22.4223 18.5711 22.6216L17.0142 24.2875C15.8328 22.0327 16.1634 19.1506 18.0069 17.2476ZM25.6801 23.6901C25.6801 24.0197 25.4203 24.288 25.1009 24.288C24.7816 24.288 24.5217 24.0197 24.5217 23.6901C24.5217 23.3605 24.7816 23.0922 25.1009 23.0922C25.4203 23.0922 25.6801 23.3604 25.6801 23.6901ZM20.2961 21.9462C20.2961 22.2758 20.0363 22.5441 19.7169 22.5441C19.3975 22.5441 19.1376 22.2758 19.1376 21.9462C19.1376 21.6166 19.3975 21.3483 19.7169 21.3483C20.0363 21.3483 20.2961 21.6166 20.2961 21.9462ZM26.1574 25.661C25.0689 26.7847 23.6216 27.4035 22.0822 27.4035C20.5428 27.4035 19.0955 26.7847 18.007 25.661C17.7908 25.4378 17.5956 25.2011 17.421 24.9535L19.1042 23.1524C19.2874 23.252 19.4959 23.3087 19.7169 23.3087C20.1739 23.3087 20.5773 23.0676 20.8142 22.7023L23.7816 23.6635C23.7815 23.6723 23.781 23.6812 23.781 23.6901C23.781 24.4414 24.3731 25.0526 25.1009 25.0526C25.8287 25.0526 26.4209 24.4414 26.4209 23.6901C26.4209 23.4586 26.3644 23.2405 26.2654 23.0493L27.8455 21.4544C27.8454 23.0435 27.2459 24.5374 26.1574 25.661Z" fill="white"/>
<path d="M18.8025 17.5541L19.2884 18.1312C20.437 17.1006 22.0474 16.7829 23.4913 17.302L23.735 16.58C22.0411 15.9709 20.1511 16.3441 18.8025 17.5541Z" fill="white"/>
<path d="M24.6856 17.0433L24.3003 17.6964C24.4963 17.8196 24.6844 17.9609 24.8595 18.1163L25.3425 17.5366C25.137 17.3542 24.916 17.1882 24.6856 17.0433Z" fill="white"/>
<path d="M22.9684 25.7566C22.135 25.938 21.2785 25.8617 20.4913 25.5361L20.2158 26.2459C20.8128 26.4928 21.4434 26.6175 22.0787 26.6175C22.4264 26.6175 22.7755 26.5801 23.1212 26.5048L22.9684 25.7566Z" fill="white"/>
<path d="M31.3604 27.5969L30.8226 28.152L29.4884 26.6798C31.0675 24.297 31.4477 21.316 30.6285 18.6452L31.687 17.5766C31.8733 17.6804 32.0862 17.7395 32.3123 17.7395C33.0401 17.7395 33.6322 17.1282 33.6322 16.3769C33.6322 16.1544 33.58 15.9444 33.488 15.7587L35.7605 13.4648V14.6504H36.5012V12.174H34.1021V12.9385H35.2223L32.9798 15.2022C32.7839 15.0831 32.5558 15.0144 32.3124 15.0144C31.5845 15.0144 30.9924 15.6256 30.9924 16.3769C30.9924 16.6173 31.0533 16.8432 31.1596 17.0395L30.3483 17.8584C29.9116 16.7848 29.271 15.7793 28.4254 14.9065C24.9277 11.296 19.2368 11.296 15.7391 14.9065C12.6234 18.1227 12.2832 23.1355 14.7183 26.7441L14.0947 27.4114C13.9114 27.3118 13.7031 27.2552 13.482 27.2552C12.7542 27.2551 12.1621 27.8663 12.1621 28.6176C12.1621 29.3689 12.7542 29.9801 13.482 29.9801C14.2099 29.9801 14.802 29.3689 14.802 28.6176C14.802 28.372 14.7384 28.1416 14.6277 27.9423L15.1726 27.3593C15.3501 27.5803 15.5385 27.795 15.7391 28.002C17.4879 29.8073 19.7851 30.7098 22.0822 30.7098C23.8456 30.7098 25.6089 30.1773 27.1242 29.1135L28.4616 30.5892L27.9055 31.1632L34.3827 37.8261L37.8378 34.2598L31.3604 27.5969ZM32.3124 15.779C32.6317 15.779 32.8916 16.0473 32.8916 16.3769C32.8916 16.7066 32.6317 16.9748 32.3124 16.9748C31.993 16.9748 31.7331 16.7066 31.7331 16.3769C31.7331 16.0473 31.993 15.779 32.3124 15.779ZM13.482 29.2154C13.1627 29.2154 12.9029 28.9472 12.9029 28.6175C12.9029 28.2879 13.1627 28.0197 13.482 28.0197C13.8014 28.0197 14.0612 28.2879 14.0612 28.6175C14.0612 28.9473 13.8014 29.2154 13.482 29.2154ZM16.2629 27.4614C13.0541 24.1491 13.0541 18.7596 16.2629 15.4471C17.8672 13.791 19.9747 12.9629 22.0822 12.9629C24.1897 12.9629 26.2972 13.791 27.9016 15.4471C31.1104 18.7594 31.1104 24.149 27.9016 27.4614C24.6929 30.7736 19.4716 30.7736 16.2629 27.4614ZM27.7229 28.6548C27.9654 28.4521 28.1999 28.2347 28.4254 28.002C28.6433 27.7771 28.8475 27.5435 29.0381 27.3022L30.2986 28.6929L28.9857 30.0481L27.7229 28.6548ZM34.3819 36.7457L28.954 31.1623L31.3614 28.6772L36.7893 34.2606L34.3819 36.7457Z" fill="white"/>
<path d="M31.3609 29.7872L30.301 30.8813L30.8248 31.422L31.3609 30.8686L33.4053 32.9789L33.929 32.4382L31.3609 29.7872Z" fill="white"/>
<path d="M34.5653 33.0911L34.0415 33.6342L34.5879 34.2009L35.1117 33.6578L34.5653 33.0911Z" fill="white"/>
<path d="M16.9163 31.1016H16.1755V31.9346H16.9163V31.1016Z" fill="white"/>
<path d="M16.9163 35.7708H16.1755V36.6038H16.9163V35.7708Z" fill="white"/>
<path d="M23.0166 32.7083H22.2759V33.5413H23.0166V32.7083Z" fill="white"/>
<path d="M33.6321 25.8313H32.8914V26.6644H33.6321V25.8313Z" fill="white"/>
<path d="M34.4727 19.1964H33.7319V20.0295H34.4727V19.1964Z" fill="white"/>
<path d="M36.9275 22.7096H36.1868V23.5426H36.9275V22.7096Z" fill="white"/>
<defs>
<linearGradient id="paint0_linear_2_616" x1="41.8919" y1="-6.41892" x2="10.1351" y2="50" gradientUnits="userSpaceOnUse">
<stop stop-color="#4488FF"/>
<stop offset="1" stop-color="#355792"/>
</linearGradient>
</defs>
</svg>
