<svg width="130" height="94" viewBox="0 0 130 94" fill="none" xmlns="http://www.w3.org/2000/svg">
<path fill-rule="evenodd" clip-rule="evenodd" d="M90.8499 64.1196C92.3211 68.8983 86.1103 74.9957 77.0117 77.7969C67.9131 80.598 59.3336 79.0018 57.8772 74.2709C57.6044 73.3486 57.5887 72.3694 57.8319 71.4388C61.0077 74.3116 68.0409 74.9295 75.4287 72.655C80.3029 71.1544 87.9728 67.2132 89.2945 61.7525C90.0152 62.3839 90.5517 63.1986 90.847 64.1101L90.8499 64.1196ZM52 75.0967C53.7978 80.9363 46.2094 88.4727 35.056 91.9065C23.9026 95.3402 13.3894 93.3767 11.5916 87.5372C11.2652 86.4054 11.2578 85.2055 11.5705 84.0699C15.4655 87.5792 24.0831 88.3476 33.1338 85.5611C39.1072 83.7221 48.5024 78.8939 50.1247 72.2003C51.0208 72.9645 51.6894 73.9604 52.0573 75.0791L52 75.0967ZM48.7192 64.0323C50.517 69.8718 42.9285 77.4082 31.7751 80.842C20.6218 84.2758 10.1086 82.3122 8.31077 76.4727C7.98738 75.3405 7.98007 74.1415 8.28963 73.0054C12.1847 76.5147 20.8022 77.2831 29.853 74.4967C35.8263 72.6577 45.2216 67.8295 46.8439 61.1358C47.7365 61.9031 48.4044 62.898 48.7765 64.0146L48.7192 64.0323ZM27.342 40.511L27.9122 43.2129L17.7364 45.404C18.8843 46.1965 19.8405 47.2355 20.5351 48.4451L18.0811 48.9704C17.602 48.2033 16.9963 47.523 16.2898 46.9584C15.548 46.309 14.6335 45.889 13.6575 45.7494L13.1925 43.5593L27.342 40.511ZM19.0874 38.5427C28.1095 35.7651 36.2948 36.4887 37.3893 40.044C38.4839 43.5994 31.9575 48.8418 22.792 51.6635C13.6266 54.4853 5.29056 53.8499 4.19305 50.285C3.09554 46.7201 9.4036 41.6182 18.3478 38.7913L19.0874 38.5427ZM18.3555 36.4034C29.3942 33.0049 39.792 35.0354 41.5809 40.8462C43.3699 46.6571 35.7932 54.2317 24.6399 57.6655C13.4865 61.0993 2.97328 59.1357 1.17842 53.3058C-0.616438 47.4758 6.85067 39.9872 17.8681 36.5534L18.3555 36.4034ZM45.2148 52.6495C47.0126 58.489 39.4242 66.0255 28.2708 69.4592C17.1174 72.893 6.60418 70.9295 4.80638 65.0899C4.48046 64.0188 4.44778 62.8798 4.71175 61.7918C8.54794 65.382 17.2435 66.1996 26.3898 63.3837C32.3727 61.5418 41.893 56.6437 43.4094 49.878C44.242 50.6284 44.8615 51.5856 45.2052 52.6525L45.2148 52.6495ZM31.0522 1.20955C31.9461 0.843858 32.9476 0.842208 33.8427 1.20495C34.7379 1.56769 35.4557 2.26607 35.8428 3.15091C36.23 4.03576 36.2558 5.03691 35.9148 5.94054C35.5737 6.84416 34.8929 7.57861 34.0177 7.98702L27.9107 10.6833L56.2606 20.3182L63.4087 8.42859C63.8121 7.75051 64.4232 7.22048 65.1515 6.91709C65.8799 6.6137 66.6866 6.55311 67.4521 6.7443L107.812 16.9507C108.759 17.1878 109.573 17.7913 110.075 18.6287C110.577 19.466 110.726 20.4685 110.489 21.4156C110.252 22.3627 109.648 23.1769 108.811 23.6789C107.974 24.181 106.971 24.3299 106.024 24.0929L68.3121 14.5676L61.042 26.6726C60.6074 27.3905 59.9411 27.9388 59.1529 28.2271C58.3648 28.5154 57.5019 28.5265 56.7067 28.2584L24.7312 17.4169L27.7312 24.2047C28.1241 25.1021 28.1443 26.1189 27.7875 27.0313C27.4307 27.9437 26.726 28.677 25.8285 29.0699C24.9311 29.4627 23.9143 29.483 23.0019 29.1261C22.0895 28.7693 21.3562 28.0647 20.9633 27.1672L14.5845 12.7352L14.5286 12.5536C14.138 11.659 14.1168 10.6462 14.4697 9.73605C14.8225 8.82586 15.5207 8.09198 16.4122 7.69428L31.0522 1.20955ZM114.631 42.0241L115.099 44.2238L106.789 46.0183C107.716 46.6553 108.49 47.4886 109.058 48.4589L107.094 48.8753C106.7 48.2498 106.204 47.6952 105.626 47.2345C105.02 46.708 104.276 46.3669 103.482 46.2519L103.099 44.4654L114.642 41.9579L114.631 42.0241ZM108.546 40.2356C115.664 38.2427 121.965 38.8248 122.833 41.6442C123.701 44.4636 118.4 48.8264 110.916 51.1303C103.433 53.4342 96.6284 52.9133 95.728 49.9888C94.8276 47.0642 99.8676 43.0433 106.985 40.7056C107.511 40.5438 108.027 40.3849 108.543 40.226L108.546 40.2356ZM108.001 38.4675C116.779 36.0163 124.873 37.6678 126.285 42.2553C127.756 47.034 121.546 53.1314 112.447 55.9325C103.348 58.7337 94.766 57.1279 93.3125 52.4065C91.8589 47.6852 97.6971 41.8386 106.396 38.9618C106.931 38.797 107.457 38.6352 108.001 38.4675ZM127.912 50.0204C128.59 50.6357 129.095 51.4186 129.375 52.2905C130.846 57.0692 124.635 63.1665 115.537 65.9677C106.438 68.7689 97.8732 67.2204 96.402 62.4417C96.1369 61.5643 96.1136 60.6316 96.3346 59.742C99.4679 62.6802 106.557 63.3437 114.021 61.0457C118.953 59.5274 126.684 55.5148 127.912 50.0204ZM73.1825 44.1857L73.6504 46.3853L65.3942 48.1843C66.3025 48.8334 67.06 49.6709 67.615 50.6395L65.6505 51.056C65.2569 50.4305 64.7607 49.8758 64.1828 49.4152C63.5825 48.8824 62.8396 48.5365 62.0454 48.4201L61.6657 46.6431L73.2089 44.1357L73.1825 44.1857ZM67.0865 42.4317C74.2148 40.4359 80.5179 41.0275 81.383 43.8373C82.248 46.6472 76.95 51.0196 69.4762 53.3206C62.0024 55.6215 55.1883 55.1035 54.288 52.179C53.3876 49.2545 58.3857 45.2673 65.4809 42.926L67.0865 42.4317ZM66.4782 40.6937C75.2622 38.2301 83.3851 39.8727 84.8004 44.4698C86.2716 49.2485 80.0607 55.3459 70.9621 58.147C61.8636 60.9482 53.2988 59.3997 51.8276 54.621C50.3564 49.8424 56.2321 44.0156 64.9586 41.1616C65.4651 41.0056 65.9143 40.8673 66.4782 40.6937ZM87.8869 54.4954C89.3581 59.2741 83.1473 65.3715 74.0487 68.1726C64.9501 70.9738 56.3677 69.368 54.9142 64.6467C54.6307 63.7565 54.6023 62.8047 54.8321 61.8992C57.9528 64.8307 65.0544 65.5008 72.5187 63.2028C77.4024 61.6993 85.1782 57.694 86.4095 52.1775C87.0846 52.7911 87.5877 53.5703 87.8693 54.4381L87.8869 54.4954Z" fill="url(#paint0_linear_2_856)"/>
<defs>
<linearGradient id="paint0_linear_2_856" x1="47.7444" y1="-3.94501" x2="73.6006" y2="80.0398" gradientUnits="userSpaceOnUse">
<stop stop-color="#4488FF"/>
<stop offset="1" stop-color="#204A95"/>
</linearGradient>
</defs>
</svg>
