<svg width="27" height="27" viewBox="0 0 27 27" fill="none" xmlns="http://www.w3.org/2000/svg">
<circle cx="13.5" cy="13.5" r="13.5" fill="#00EAC3"/>
<g clip-path="url(#clip0_719_202)">
<path d="M19.3934 10.4089H14.6804C15.6943 10.0777 16.753 9.38368 17.1614 8.97577C18.0724 8.06572 18.0725 6.5927 17.1614 5.68259C16.2504 4.77251 14.7757 4.77244 13.8646 5.68259C13.5954 5.9514 13.2785 6.40265 13.0001 6.8986C12.7217 6.40265 12.4047 5.9514 12.1356 5.68259C11.2245 4.77254 9.74989 4.77247 8.83874 5.68259C7.92765 6.59267 7.92758 8.06562 8.83874 8.97577C9.24713 9.38372 10.3058 10.0777 11.3198 10.409H6.6066C6.27159 10.409 6 10.6803 6 11.0149V13.8114C6 14.146 6.27159 14.4173 6.6066 14.4173H7.20376V20.3941C7.20376 20.7287 7.47534 21 7.81035 21H11.4954C11.4954 20.9174 11.4954 10.5065 11.4954 10.4089H12.8939H14.5046C14.5046 10.5069 14.5046 20.9192 14.5046 21H18.1896C18.5247 21 18.7962 20.7287 18.7962 20.3941V14.4173H19.3934C19.7284 14.4173 20 14.146 20 13.8114V11.0149C20.0001 10.6802 19.7285 10.4089 19.3934 10.4089ZM9.88957 7.9261C9.55928 7.59617 9.55921 7.06222 9.88957 6.73223C10.2199 6.4023 10.7544 6.40226 11.0848 6.73223C11.2806 6.92783 11.6392 7.45155 11.9181 8.03688C12.1246 8.47021 12.2455 9.06626 12.2442 9.10674C11.5778 9.04565 10.3062 8.34232 9.88957 7.9261ZM13.7312 9.10915C13.7592 8.77981 13.9391 8.33663 14.0819 8.03688C14.3609 7.45155 14.7195 6.92783 14.9153 6.73223C15.2456 6.4023 15.7802 6.40226 16.1105 6.73223C16.4408 7.06219 16.4408 7.5961 16.1105 7.9261C15.6861 8.35008 14.3867 9.06385 13.7312 9.10915Z" fill="white"/>
</g>
<defs>
<clipPath id="clip0_719_202">
<rect width="17" height="17" fill="white" transform="translate(5 5)"/>
</clipPath>
</defs>
</svg>
