<svg width="100" height="136" viewBox="0 0 100 136" fill="none" xmlns="http://www.w3.org/2000/svg">
<path fill-rule="evenodd" clip-rule="evenodd" d="M56.6008 54.7713C57.4082 53.6847 58.3363 52.6933 59.3672 51.816C61.4844 50.6128 63.7098 49.611 66.0142 48.8236C69.2853 47.5513 72.6814 46.6541 73.2597 47.2345C73.7668 47.7174 74.1328 48.3293 74.3184 49.0045C74.4843 49.6716 74.4972 50.3676 74.3561 51.0404C73.8359 52.8558 72.939 54.5411 71.7238 55.9865C70.5915 57.5632 69.5568 59.0125 70.0484 59.6652C70.0713 59.7287 70.277 59.7876 70.5601 59.8905C71.0957 60.0663 71.6409 60.2117 72.1929 60.3262C74.4065 60.7447 76.54 61.5106 78.5144 62.5955C80.4709 63.7293 82.276 65.1061 83.8867 66.6931C84.4142 67.1894 84.9424 67.7161 85.4771 68.261C86.0119 68.8059 86.5793 69.4415 87.146 70.0466L87.2822 70.2537C87.6433 70.9797 88.1359 71.6324 88.735 72.1787C88.9528 72.3563 89.1281 72.416 89.255 72.3702L90.8509 71.7945L91.4765 71.5688C92.9243 70.9235 93.7389 70.5682 95.405 72.488C96.6966 74.1453 97.6542 76.0376 98.2246 78.0599C98.9324 80.2157 99.3123 82.4656 99.3516 84.7343C99.5267 85.7857 99.3334 86.8653 98.8044 87.7907C98.1989 88.7565 97.3038 89.5062 96.2468 89.9328L94.4333 90.5871C93.6807 90.8586 93.0188 91.0974 92.5292 91.274C92.0395 91.4507 91.9376 91.3952 91.8872 91.4544C91.8368 91.5136 91.9035 91.4997 91.8627 91.6989C91.5981 92.674 91.2564 93.6265 90.8408 94.5474C90.3753 95.5864 89.8124 96.7528 89.2628 97.8426C88.7132 98.9324 88.2316 99.8132 87.7899 100.577L87.5178 101.044C87.2228 101.47 86.9753 101.927 86.7797 102.407C87.1199 102.954 87.5309 103.453 88.0022 103.892C88.3406 104.262 88.541 104.477 88.6132 104.564C89.4156 105.453 90.2048 106.305 90.903 107.047C92.0832 108.302 93.3687 109.621 93.7982 110.102L93.8178 110.156C94.8246 111.299 95.0731 112.358 94.6003 113.348C94.313 113.824 93.9259 114.233 93.4657 114.546C93.0054 114.859 92.4829 115.069 91.934 115.16L85.5869 117.45C84.7427 117.825 83.8055 117.938 82.8963 117.775C81.9144 117.584 80.9859 117.181 80.1751 116.595L80.0847 116.515C79.6438 116.128 79.2226 115.719 78.8228 115.289C77.7214 114.139 76.348 112.718 75.8197 113.186C72.3242 116.328 68.3123 118.843 63.9607 120.62C59.0175 122.501 53.7967 123.55 48.5105 123.724C46.8634 124.073 46.7848 124.849 46.6565 126.084C46.6193 126.436 46.5888 126.805 46.5241 127.28C46.4888 127.579 46.4827 127.704 46.4701 127.811C46.3041 129.624 46.1456 131.372 44.1025 132.611L43.8668 132.696L35.7649 135.547L35.6833 135.576C35.2167 135.719 34.7248 135.76 34.241 135.697C33.7215 135.634 33.2339 135.413 32.8442 135.064C31.6536 134.007 31.7776 132.846 31.9041 131.662L31.9539 131.204L32.5512 123.969L32.5664 123.84C32.6949 123.38 32.6559 122.89 32.4562 122.456C32.1941 122.132 31.8344 121.903 31.4309 121.801C30.7248 121.605 30.0212 121.387 29.3449 121.16C28.6685 120.932 27.9569 120.636 27.2888 120.375C25.0024 119.416 22.839 118.188 20.8448 116.715C18.8462 115.222 17.0445 113.483 15.4827 111.538C14.2787 110.094 13.2428 108.519 12.3948 106.841C12.2508 106.442 12.022 106.064 11.8476 105.666C10.3183 105.499 8.84193 105.009 7.5172 104.227C6.19248 103.445 5.04983 102.389 4.16553 101.131C2.1695 98.4383 0.933127 94.6419 0.76709 89.9777L3.29561 89.8853C3.27199 93.3465 4.28412 96.7357 6.20189 99.6171C7.34676 101.234 9.0181 102.402 10.9297 102.922C10.8022 102.569 10.7439 102.18 10.6616 101.81C9.86741 97.7536 9.99003 93.571 11.0205 89.5681C12.3502 84.2572 14.9085 79.3328 18.4895 75.1915L18.7167 75.253L36.1868 79.0544C33.81 80.3456 31.5529 81.8457 29.4421 83.5371C28.7136 84.1422 28.2524 85.0097 28.1583 85.952C28.0642 86.8944 28.3446 87.8359 28.9391 88.5731C29.5335 89.3104 30.3941 89.7841 31.335 89.892C32.2759 89.9998 33.2214 89.7332 33.9672 89.1496C37.3848 86.4436 41.2366 84.3368 45.3587 82.9187C49.6115 81.4342 54.0601 80.5855 58.5608 80.4001C59.5199 80.3503 60.4199 79.9216 61.0629 79.2082C61.7059 78.4949 62.0392 77.5553 61.9894 76.5962C61.9396 75.6371 61.5109 74.7371 60.7975 74.0941C60.0842 73.4511 59.1446 73.1178 58.1855 73.1676C56.1638 73.2571 54.1482 73.4541 52.1474 73.7575L56.5605 54.7448L56.6008 54.7713ZM73.9624 0.467881L65.9106 3.37266C65.7021 3.45049 65.532 3.6063 65.4362 3.80721C65.3404 4.00812 65.3265 4.23838 65.3973 4.44938L72.4532 24.0076C72.5313 24.2168 72.6888 24.3867 72.8915 24.4805C73.0942 24.5743 73.3256 24.5844 73.5357 24.5086L81.5875 21.6038C81.7975 21.528 81.9692 21.3725 82.0653 21.1709C82.1614 20.9693 82.1742 20.738 82.1008 20.5271L75.0449 0.968875C74.9668 0.759688 74.8093 0.589765 74.6066 0.495973C74.4039 0.40218 74.1725 0.392086 73.9624 0.467881ZM64.341 7.88418C64.2427 7.5391 64.0326 7.23643 63.7437 7.02371C62.9749 6.51198 61.7536 7.1883 60.9828 7.46635C60.1615 7.78955 59.3073 8.02211 58.4355 8.15989C57.1228 8.28098 55.8035 8.31532 54.4863 8.26268C49.5409 8.274 45.4642 8.64824 40.1565 8.30864C39.6176 8.26223 39.0751 8.33324 38.5664 8.51678C38.0576 8.70032 37.5947 8.99202 37.2096 9.37176C33.504 12.4683 30.0806 15.8877 26.9799 19.5899C26.6716 19.9343 26.4104 20.318 26.2029 20.731C26.0045 21.158 25.8677 21.611 25.7967 22.0764C24.5754 26.616 23.7691 31.1698 23.0371 35.6456C22.81 37.2032 22.968 38.5501 23.7299 39.1565C26.8373 41.663 28.6829 35.8428 31.3953 31.4313C32.5299 29.5771 34.2881 27.6619 35.6792 25.6947C37.7131 23.8337 38.4849 22.4793 40.858 21.0186C44.6689 19.2543 47.0332 24.7855 41.9401 26.8586C38.4801 28.2606 32.3926 34.0536 31.4213 37.7241C30.5076 41.128 32.5317 43.472 36.3519 41.9606L39.3639 40.1976C44.146 37.376 43.9323 37.2379 49.6509 36.302C52.7149 35.791 55.9281 35.2671 58.6845 33.6476C60.3769 32.6579 61.022 31.6054 62.2216 29.7893C62.7601 28.8111 63.401 27.8929 64.1334 27.0501C64.7121 26.356 65.3787 25.74 66.1162 25.2178C67.2447 24.4827 69.127 24.275 69.4704 22.9829C69.5514 22.5931 69.5225 22.1885 69.3869 21.8141L64.3592 7.87764L64.341 7.88418ZM33.3043 47.6304C32.5209 48.6362 32.0745 49.8634 32.0286 51.1375C31.9826 52.4116 32.3395 53.6678 33.0484 54.7275C33.7573 55.7871 34.7823 56.5963 35.9775 57.0401C37.1727 57.4838 38.4774 57.5395 39.706 57.1992C40.9347 56.859 42.0249 56.14 42.8215 55.1446C43.6182 54.1493 44.0808 52.9281 44.1436 51.6547C44.2064 50.3813 43.8662 49.1205 43.1713 48.0516C42.4765 46.9827 41.4624 46.1599 40.2731 45.7004C39.7535 46.0211 39.2973 46.3189 38.9996 46.4878C38.7522 46.6285 38.4955 46.752 38.2311 46.8573C36.6688 47.4929 34.9787 47.7515 33.2978 47.6123L33.3043 47.6304ZM25.6898 45.3562L19.9733 69.7887L46.0231 75.5571L54.1459 40.8084C52.881 41.0802 51.6814 41.2773 50.5033 41.4769L49.7469 41.5961L43.8049 66.2841C42.7853 66.0577 41.7176 66.2451 40.8361 66.8052C39.9546 67.3653 39.3313 68.2523 39.1031 69.2715L28.808 66.9806C29.0292 65.9646 28.8401 64.9023 28.2818 64.0251C27.7235 63.1479 26.8412 62.5267 25.8271 62.2969L29.6467 46.4393C28.9658 46.0008 28.3561 45.4604 27.839 44.8371C27.1723 45.1643 26.4474 45.3561 25.7062 45.4015L25.6898 45.3562ZM72.825 73.4403C73.7201 73.1129 74.701 73.1063 75.6004 73.4216C76.4998 73.7369 77.262 74.3546 77.7567 75.1692C78.2515 75.9838 78.4482 76.9448 78.3133 77.8883C78.1785 78.8318 77.7204 79.6992 77.0172 80.3426C76.3141 80.9859 75.4094 81.3653 74.4577 81.416C73.506 81.4667 72.5662 81.1856 71.7987 80.6206C71.0311 80.0556 70.4835 79.2417 70.2491 78.3179C70.0148 77.3941 70.1083 76.4176 70.5137 75.555C70.7378 75.0658 71.0578 74.6265 71.4549 74.2632C71.8519 73.9 72.3178 73.6201 72.825 73.4403Z" fill="url(#paint0_linear_2_852)"/>
<defs>
<linearGradient id="paint0_linear_2_852" x1="25.6156" y1="13.1889" x2="65.866" y2="124.759" gradientUnits="userSpaceOnUse">
<stop stop-color="#00F9CF"/>
<stop offset="0.513542" stop-color="#0FAE93"/>
<stop offset="1" stop-color="#1E675B"/>
</linearGradient>
</defs>
</svg>
