<svg width="50" height="50" viewBox="0 0 50 50" fill="none" xmlns="http://www.w3.org/2000/svg">
<path d="M50 25C50 11.1929 38.8071 0 25 0C11.1929 0 0 11.1929 0 25C0 38.8071 11.1929 50 25 50C38.8071 50 50 38.8071 50 25Z" fill="url(#paint0_linear_2_636)"/>
<path d="M28.1662 34.947C28.8209 34.947 29.3536 34.4143 29.3536 33.7597C29.3536 33.1051 28.8209 32.5724 28.1662 32.5724C27.6509 32.5724 27.2156 32.9044 27.0517 33.3639H25.3959V30.9893H27.0517C27.2156 31.4488 27.6509 31.7809 28.1662 31.7809C28.8209 31.7809 29.3536 31.2482 29.3536 30.5936C29.3536 29.939 28.8209 29.4063 28.1662 29.4063C27.6509 29.4063 27.2156 29.7383 27.0517 30.1977H25.3959V27.8232H27.0517C27.2156 28.2826 27.6509 28.6147 28.1662 28.6147C28.8209 28.6147 29.3536 28.082 29.3536 27.4274C29.3536 26.7728 28.8209 26.2401 28.1662 26.2401C27.6509 26.2401 27.2156 26.5721 27.0517 27.0316H25.3959V26.2401H24.6043V24.5842C25.0638 24.4203 25.3959 23.985 25.3959 23.4697C25.3959 22.8151 24.8632 22.2824 24.2086 22.2824C23.5539 22.2824 23.0212 22.8151 23.0212 23.4697C23.0212 23.985 23.3533 24.4203 23.8128 24.5842V26.2401H21.4382V24.5842C21.8976 24.4203 22.2297 23.985 22.2297 23.4697C22.2297 22.8151 21.697 22.2824 21.0424 22.2824C20.3878 22.2824 19.8551 22.8151 19.8551 23.4697C19.8551 23.985 20.1871 24.4203 20.6466 24.5842V26.2401H18.272V24.5842C18.7315 24.4203 19.0636 23.985 19.0636 23.4697C19.0636 22.8151 18.5309 22.2824 17.8762 22.2824C17.2216 22.2824 16.6889 22.8151 16.6889 23.4697C16.6889 23.985 17.021 24.4203 17.4805 24.5842V26.2401H16.6889V27.0316H15.033C14.8692 26.5721 14.4338 26.2401 13.9186 26.2401C13.2639 26.2401 12.7312 26.7728 12.7312 27.4274C12.7312 28.082 13.2639 28.6147 13.9186 28.6147C14.4338 28.6147 14.8692 28.2826 15.033 27.8232H16.6889V30.1977H15.033C14.8692 29.7383 14.4338 29.4063 13.9186 29.4063C13.2639 29.4063 12.7312 29.939 12.7312 30.5936C12.7312 31.2482 13.2639 31.7809 13.9186 31.7809C14.4338 31.7809 14.8692 31.4488 15.033 30.9893H16.6889V33.3639H15.033C14.8692 32.9044 14.4338 32.5724 13.9186 32.5724C13.2639 32.5724 12.7312 33.1051 12.7312 33.7597C12.7312 34.4143 13.2639 34.947 13.9186 34.947C14.4338 34.947 14.8692 34.615 15.033 34.1554H16.6889V34.947H17.4805V36.6029C17.021 36.7667 16.6889 37.2021 16.6889 37.7174C16.6889 38.372 17.2216 38.9047 17.8762 38.9047C18.5309 38.9047 19.0636 38.372 19.0636 37.7174C19.0636 37.2021 18.7315 36.7667 18.272 36.6029V34.947H20.6466V36.6029C20.1871 36.7667 19.8551 37.2021 19.8551 37.7174C19.8551 38.372 20.3878 38.9047 21.0424 38.9047C21.697 38.9047 22.2297 38.372 22.2297 37.7174C22.2297 37.2021 21.8976 36.7667 21.4382 36.6029V34.947H23.8128V36.6029C23.3533 36.7667 23.0212 37.2021 23.0212 37.7174C23.0212 38.372 23.5539 38.9047 24.2086 38.9047C24.8632 38.9047 25.3959 38.372 25.3959 37.7174C25.3959 37.2021 25.0638 36.7667 24.6043 36.6029V34.947H25.3959V34.1554H27.0517C27.2156 34.615 27.6509 34.947 28.1662 34.947ZM28.1662 33.3639C28.3847 33.3639 28.562 33.5413 28.562 33.7597C28.562 33.9782 28.3847 34.1554 28.1662 34.1554C27.9478 34.1554 27.7705 33.9782 27.7705 33.7597C27.7705 33.5413 27.9478 33.3639 28.1662 33.3639ZM28.1662 30.1977C28.3847 30.1977 28.562 30.375 28.562 30.5936C28.562 30.812 28.3847 30.9893 28.1662 30.9893C27.9478 30.9893 27.7705 30.812 27.7705 30.5936C27.7705 30.375 27.9478 30.1977 28.1662 30.1977ZM28.1662 27.0316C28.3847 27.0316 28.562 27.2089 28.562 27.4274C28.562 27.6459 28.3847 27.8232 28.1662 27.8232C27.9478 27.8232 27.7705 27.6459 27.7705 27.4274C27.7705 27.2089 27.9478 27.0316 28.1662 27.0316ZM13.9186 27.8232C13.7001 27.8232 13.5228 27.6459 13.5228 27.4274C13.5228 27.2089 13.7001 27.0316 13.9186 27.0316C14.137 27.0316 14.3143 27.2089 14.3143 27.4274C14.3143 27.6459 14.137 27.8232 13.9186 27.8232ZM13.9186 30.9893C13.7001 30.9893 13.5228 30.812 13.5228 30.5936C13.5228 30.375 13.7001 30.1977 13.9186 30.1977C14.137 30.1977 14.3143 30.375 14.3143 30.5936C14.3143 30.812 14.137 30.9893 13.9186 30.9893ZM13.9186 34.1554C13.7001 34.1554 13.5228 33.9782 13.5228 33.7597C13.5228 33.5413 13.7001 33.3639 13.9186 33.3639C14.137 33.3639 14.3143 33.5413 14.3143 33.7597C14.3143 33.9782 14.137 34.1554 13.9186 34.1554ZM24.2086 23.0739C24.427 23.0739 24.6043 23.2516 24.6043 23.4697C24.6043 23.6877 24.427 23.8654 24.2086 23.8654C23.9901 23.8654 23.8128 23.6877 23.8128 23.4697C23.8128 23.2516 23.9901 23.0739 24.2086 23.0739ZM21.0424 23.0739C21.2609 23.0739 21.4382 23.2516 21.4382 23.4697C21.4382 23.6877 21.2609 23.8654 21.0424 23.8654C20.8239 23.8654 20.6466 23.6877 20.6466 23.4697C20.6466 23.2516 20.8239 23.0739 21.0424 23.0739ZM17.8762 23.0739C18.0947 23.0739 18.272 23.2516 18.272 23.4697C18.272 23.6877 18.0947 23.8654 17.8762 23.8654C17.6578 23.8654 17.4805 23.6877 17.4805 23.4697C17.4805 23.2516 17.6578 23.0739 17.8762 23.0739ZM17.8762 38.1132C17.6578 38.1132 17.4805 37.9359 17.4805 37.7174C17.4805 37.4989 17.6578 37.3216 17.8762 37.3216C18.0947 37.3216 18.272 37.4989 18.272 37.7174C18.272 37.9359 18.0947 38.1132 17.8762 38.1132ZM21.0424 38.1132C20.8239 38.1132 20.6466 37.9359 20.6466 37.7174C20.6466 37.4989 20.8239 37.3216 21.0424 37.3216C21.2609 37.3216 21.4382 37.4989 21.4382 37.7174C21.4382 37.9359 21.2609 38.1132 21.0424 38.1132ZM24.2086 38.1132C23.9901 38.1132 23.8128 37.9359 23.8128 37.7174C23.8128 37.4989 23.9901 37.3216 24.2086 37.3216C24.427 37.3216 24.6043 37.4989 24.6043 37.7174C24.6043 37.9359 24.427 38.1132 24.2086 38.1132ZM24.6043 34.1554H17.4805V27.0316H24.6043V34.1554Z" fill="white"/>
<path d="M35.486 20.6989V20.6993C35.3384 20.127 35.1112 19.58 34.8077 19.0671L36.0698 17.8046L33.8309 15.5662L32.5684 16.8287C32.0555 16.5247 31.5089 16.2975 30.9366 16.1499V14.367H27.7705V16.1499C27.1982 16.2975 26.6517 16.5247 26.1387 16.8283L24.8762 15.5658L22.6374 17.8042L23.8995 19.0667C23.5959 19.5796 23.3688 20.1266 23.2211 20.6989H21.834V21.4905H23.8595L23.924 21.1734C24.0645 20.4805 24.3364 19.8263 24.7322 19.2282L24.9107 18.9587L23.7562 17.8042L24.8759 16.685L26.0303 17.8395L26.2998 17.661C26.8974 17.2652 27.5516 16.9933 28.245 16.8528L28.562 16.7887V15.1586H30.1451V16.7887L30.4622 16.8532C31.1555 16.9937 31.8097 17.2656 32.4074 17.6614L32.6768 17.8398L33.8313 16.6854L34.9509 17.8046L33.7965 18.9591L33.975 19.2286C34.3707 19.8266 34.6426 20.4809 34.7831 21.1738L34.8476 21.4909H36.4774V23.0739H34.8476L34.7831 23.3909C34.6426 24.0839 34.3707 24.7382 33.975 25.3357L33.7965 25.6057L34.9509 26.7601L33.8313 27.8798L32.6768 26.7253L32.4074 26.9038C31.8093 27.2996 31.1551 27.5719 30.4622 27.7119L30.1451 27.7765V29.802H30.9366V28.4148C31.5085 28.2676 32.0555 28.0404 32.5684 27.7365L33.8309 28.9986L36.0698 26.7597L34.8077 25.4972C35.1112 24.9843 35.3384 24.4373 35.486 23.865H37.269V20.6989H35.486Z" fill="white"/>
<path d="M29.3535 25.4485V26.2401C31.5357 26.2401 33.3112 24.4646 33.3112 22.2823C33.3112 20.1001 31.5357 18.3246 29.3535 18.3246C27.1712 18.3246 25.3958 20.1001 25.3958 22.2823H26.1873C26.1873 20.5366 27.6077 19.1162 29.3535 19.1162C31.0992 19.1162 32.5196 20.5366 32.5196 22.2823C32.5196 24.0281 31.0992 25.4485 29.3535 25.4485Z" fill="white"/>
<path d="M23.8127 27.8232H18.272V28.6147H23.8127V27.8232Z" fill="white"/>
<path d="M23.8128 32.5724H23.0212V33.3639H23.8128V32.5724Z" fill="white"/>
<path d="M22.2297 32.5724H18.272V33.3639H22.2297V32.5724Z" fill="white"/>
<path d="M27.2959 37.8828L27.4534 38.659C32.2858 37.6778 36.042 33.9216 37.0231 29.0893L36.247 28.9318C35.33 33.4522 31.8164 36.9659 27.2959 37.8828Z" fill="white"/>
<path d="M22.704 15.3884L22.5465 14.6127C17.7142 15.5938 13.9579 19.3501 12.9768 24.1825L13.7529 24.3396C14.6699 19.8199 18.1835 16.3058 22.704 15.3884Z" fill="white"/>
<defs>
<linearGradient id="paint0_linear_2_636" x1="41.8919" y1="-7.0946" x2="13.1757" y2="54.3919" gradientUnits="userSpaceOnUse">
<stop stop-color="#00F9CF"/>
<stop offset="1" stop-color="#0F6355"/>
</linearGradient>
</defs>
</svg>
